<?xml version="1.0" encoding="UTF-8"?>
<svg id="Layer_1" data-name="Layer 1" xmlns="http://www.w3.org/2000/svg" xmlns:xlink="http://www.w3.org/1999/xlink" viewBox="0 0 621.16 162.03">
  <defs>
    <style>
      .cls-1 {
        fill: #231f20;
      }

      .cls-2 {
        fill: url(#linear-gradient);
      }
    </style>
    <linearGradient id="linear-gradient" x1="0" y1="108.11" x2="621.16" y2="108.11" gradientUnits="userSpaceOnUse">
      <stop offset="0" stop-color="#b59147"/>
      <stop offset=".03" stop-color="#c7a049"/>
      <stop offset=".07" stop-color="#dcb34c"/>
      <stop offset=".1" stop-color="#d1a63f"/>
      <stop offset=".14" stop-color="#d6ae49"/>
      <stop offset=".16" stop-color="#dcb854"/>
      <stop offset=".21" stop-color="#e7c867"/>
      <stop offset=".23" stop-color="#eed475"/>
      <stop offset=".26" stop-color="#f5de81"/>
      <stop offset=".29" stop-color="#edd070"/>
      <stop offset=".31" stop-color="#e4c15d"/>
      <stop offset=".33" stop-color="#dbb14a"/>
      <stop offset=".35" stop-color="#d8ac43"/>
      <stop offset=".38" stop-color="#ddb34b"/>
      <stop offset=".42" stop-color="#eac862"/>
      <stop offset=".43" stop-color="#f3d571"/>
      <stop offset=".48" stop-color="#fce481"/>
      <stop offset=".51" stop-color="#fce17c"/>
      <stop offset=".52" stop-color="#fbde78"/>
      <stop offset=".55" stop-color="#fbda70"/>
      <stop offset=".56" stop-color="#f8d66b"/>
      <stop offset=".62" stop-color="#ebc456"/>
      <stop offset=".64" stop-color="#e8c051"/>
      <stop offset=".69" stop-color="#e0b544"/>
      <stop offset=".73" stop-color="#daac3a"/>
      <stop offset=".82" stop-color="#d1a02c"/>
      <stop offset=".86" stop-color="#d2a32f"/>
      <stop offset=".9" stop-color="#d7ac3a"/>
      <stop offset=".93" stop-color="#e0bb4c"/>
      <stop offset=".96" stop-color="#ecd166"/>
      <stop offset=".99" stop-color="#fced86"/>
      <stop offset="1" stop-color="#fff38d"/>
    </linearGradient>
  </defs>
  <path class="cls-2" d="M0,68.32c89.2,76.5,197.07,101.89,302.88,42.64,49.6-25.61,102.02-58.69,160.93-56.69,56.4,1.59,116.63,17.93,157.35,58.48-55.15-38.31-131.92-50.74-196.71-35.75-40.29,10.98-74.36,33.44-112.08,52.67C200.2,190.67,82.82,162.79,0,68.32h0Z"/>
  <g>
    <g>
      <path class="cls-1" d="M51.98,59.21c-2.31-5.36-3.47-10.94-3.47-16.72s1.16-11.36,3.47-16.51c2.42-5.05,5.47-9.68,9.57-13.57,4.21-4.1,8.94-6.94,14.3-9.15,5.47-2.21,11.36-3.26,17.56-3.26,11.78,0,22.82,4.2,31.24,11.88l-2.31,2.42c-7.89-7.15-17.99-10.94-28.92-10.94-13.36,0-31.45,12.2-31.45,39.23s19.77,39.23,33.13,39.23c2.84,0,5.47-.21,8.31-.74,8.94-2,10.41-7.15,10.73-13.25v-23.45h-15.99v-3.37h28.61v31.76c-4.31,4-9.05,7.05-14.3,9.05-5.47,2.42-11.36,3.37-17.36,3.37s-13.67-.95-19.25-3.37c-5.37-2.11-10.1-5.15-14.3-9.05-4.1-3.89-7.15-8.52-9.57-13.57Z"/>
      <path class="cls-1" d="M143.91,84.77V.84h13.46v80.57h51.85v3.37h-65.31Z"/>
      <path class="cls-1" d="M215.32,59.32c-2.42-5.15-3.47-10.73-3.47-16.51s1.16-11.46,3.47-16.72c2.42-5.05,5.57-9.68,9.68-13.46,4.1-4.1,8.94-7.05,14.3-9.25,5.57-2.11,11.25-3.37,17.46-3.37s11.88,1.26,17.46,3.37c5.37,2.21,10.2,5.15,14.3,9.25,4.21,3.89,7.47,8.41,9.68,13.46,2.42,5.15,3.57,10.73,3.57,16.72s-1.15,11.36-3.57,16.51c-2.21,5.15-5.57,9.68-9.68,13.57-4.1,3.89-8.83,6.94-14.3,9.15-5.68,2.21-11.46,3.37-17.46,3.37s-11.78-1.16-17.46-3.37c-5.47-2.21-10.2-5.26-14.3-9.15-4.1-3.89-7.36-8.42-9.68-13.57ZM256.87,3.37c-13.25,0-31.24,12.31-31.24,39.44s17.99,39.23,31.24,39.23,31.34-12.2,31.34-39.23-17.88-39.44-31.34-39.44Z"/>
      <path class="cls-1" d="M376.98,84.66l-32.4-40.7h-12.41v40.7h-13.46V.63h39.12c7.47,0,14.2,2.1,19.14,6.2,4.94,4.1,7.57,9.57,7.57,15.46s-2.63,11.36-7.57,15.46c-4.63,3.89-10.83,5.89-17.99,6.2l32.39,40.7h-14.41ZM332.18,40.6h21.14c12.73,0,17.77-7.78,17.77-18.3s-5.05-18.3-17.77-18.3h-21.14v36.6Z"/>
      <path class="cls-1" d="M442.72.74l40.39,84.03h-14.3l-10.94-22.82h-44.59l-10.94,22.82h-4.21L438.51.74h4.21ZM414.84,58.58h41.44l-20.72-43.02-20.72,43.02Z"/>
      <path class="cls-1" d="M512.49,3.29l-15.31,29.94-15.64-30.61v30.95h-1.34V.02h5.38l13.54,26.2L512.49.02h5.38v33.55h-5.38V3.29Z"/>
      <path class="cls-1" d="M524.74,33.57V.02h15.52c2.36,0,4.63.42,6.77,1.3s4,2.1,5.55,3.62c1.6,1.52,2.86,3.28,3.74,5.34s1.39,4.2,1.39,6.52-.51,4.37-1.39,6.52c-.88,1.98-2.14,3.79-3.74,5.34-1.64,1.55-3.49,2.78-5.55,3.62-2.14.88-4.41,1.3-6.77,1.3h-15.52ZM538.49,1.36h-8.37v30.86h9.55c6.05-.34,12.4-3.95,12.4-15.39,0-12.28-7.19-15.47-13.58-15.47Z"/>
    </g>
    <g>
      <path d="M51.98,59.21c-2.31-5.36-3.47-10.94-3.47-16.72s1.16-11.36,3.47-16.51c2.42-5.05,5.47-9.68,9.57-13.57,4.21-4.1,8.94-6.94,14.3-9.15,5.47-2.21,11.36-3.26,17.56-3.26,11.78,0,22.82,4.2,31.24,11.88l-2.31,2.42c-7.89-7.15-17.99-10.94-28.92-10.94-13.36,0-31.45,12.2-31.45,39.23s19.77,39.23,33.13,39.23c2.84,0,5.47-.21,8.31-.74,8.94-2,10.41-7.15,10.73-13.25v-23.45h-15.99v-3.37h28.61v31.76c-4.31,4-9.05,7.05-14.3,9.05-5.47,2.42-11.36,3.37-17.36,3.37s-13.67-.95-19.25-3.37c-5.37-2.11-10.1-5.15-14.3-9.05-4.1-3.89-7.15-8.52-9.57-13.57Z"/>
      <path d="M143.91,84.77V.84h13.46v80.57h51.85v3.37h-65.31Z"/>
      <path d="M215.32,59.32c-2.42-5.15-3.47-10.73-3.47-16.51s1.16-11.46,3.47-16.72c2.42-5.05,5.57-9.68,9.68-13.46,4.1-4.1,8.94-7.05,14.3-9.25,5.57-2.11,11.25-3.37,17.46-3.37s11.88,1.26,17.46,3.37c5.37,2.21,10.2,5.15,14.3,9.25,4.21,3.89,7.47,8.41,9.68,13.46,2.42,5.15,3.57,10.73,3.57,16.72s-1.15,11.36-3.57,16.51c-2.21,5.15-5.57,9.68-9.68,13.57-4.1,3.89-8.83,6.94-14.3,9.15-5.68,2.21-11.46,3.37-17.46,3.37s-11.78-1.16-17.46-3.37c-5.47-2.21-10.2-5.26-14.3-9.15-4.1-3.89-7.36-8.42-9.68-13.57ZM256.87,3.37c-13.25,0-31.24,12.31-31.24,39.44s17.99,39.23,31.24,39.23,31.34-12.2,31.34-39.23-17.88-39.44-31.34-39.44Z"/>
      <path d="M376.98,84.66l-32.4-40.7h-12.41v40.7h-13.46V.63h39.12c7.47,0,14.2,2.1,19.14,6.2,4.94,4.1,7.57,9.57,7.57,15.46s-2.63,11.36-7.57,15.46c-4.63,3.89-10.83,5.89-17.99,6.2l32.39,40.7h-14.41ZM332.18,40.6h21.14c12.73,0,17.77-7.78,17.77-18.3s-5.05-18.3-17.77-18.3h-21.14v36.6Z"/>
      <path d="M442.72.74l40.39,84.03h-14.3l-10.94-22.82h-44.59l-10.94,22.82h-4.21L438.51.74h4.21ZM414.84,58.58h41.44l-20.72-43.02-20.72,43.02Z"/>
      <path d="M512.49,3.29l-15.31,29.94-15.64-30.61v30.95h-1.34V.02h5.38l13.54,26.2L512.49.02h5.38v33.55h-5.38V3.29Z"/>
      <path d="M524.74,33.57V.02h15.52c2.36,0,4.63.42,6.77,1.3s4,2.1,5.55,3.62c1.6,1.52,2.86,3.28,3.74,5.34s1.39,4.2,1.39,6.52-.51,4.37-1.39,6.52c-.88,1.98-2.14,3.79-3.74,5.34-1.64,1.55-3.49,2.78-5.55,3.62-2.14.88-4.41,1.3-6.77,1.3h-15.52ZM538.49,1.36h-8.37v30.86h9.55c6.05-.34,12.4-3.95,12.4-15.39,0-12.28-7.19-15.47-13.58-15.47Z"/>
    </g>
  </g>
</svg>